<svg id="_24" data-name="24" xmlns="http://www.w3.org/2000/svg" viewBox="0 0 60 60"><defs><style>.cls-1{opacity:0.94;}.cls-2{fill:#1f1f1f;}.cls-3{fill:none;}</style></defs><title>24</title><g class="cls-1"><path class="cls-2" d="M53.84,28.74a2,2,0,0,0-2,2A21.84,21.84,0,1,1,30,8.9a21.64,21.64,0,0,1,11.35,3.18l-3.48.15a2,2,0,0,0,.08,4H38l10.35-.45V5.42a2,2,0,1,0-4,0V9.3A25.6,25.6,0,0,0,30,4.9,25.84,25.84,0,1,0,55.84,30.74,2,2,0,0,0,53.84,28.74Z"/><path class="cls-2" d="M15.44,39v.55a1,1,0,0,0,1.17,1.09H26.75a1,1,0,0,0,1.09-1.09v-.73a1,1,0,0,0-1.09-1.07H19.13c.16-3.48,8.42-4.5,8.42-10.43,0-3.48-2.78-5.46-6-5.46A6.75,6.75,0,0,0,16,24.62a1,1,0,0,0,.29,1.46l.7.55c.52.44,1,.26,1.53-.23A3.59,3.59,0,0,1,21.26,25a2.58,2.58,0,0,1,2.81,2.57C24.07,31.25,15.44,32.32,15.44,39Z"/><path class="cls-2" d="M39,40.61h1.14a1,1,0,0,0,1.09-1.09V35.86h1.51c.57,0,.88-.36.88-1.07v-.65a1,1,0,0,0-1.09-1.07h-1.3V23.25a1,1,0,0,0-1.09-1.09h-2a1.38,1.38,0,0,0-1.3.7L29.66,33.2a2.15,2.15,0,0,0-.39,1.33v.26a1,1,0,0,0,1.07,1.07H37.9v3.67A1,1,0,0,0,39,40.61Zm-6.16-7.54V33l4.26-5.9A10.71,10.71,0,0,0,38,25.43H38a17.71,17.71,0,0,0-.13,1.92v5.72Z"/></g><rect class="cls-3" width="60" height="60"/></svg>