<svg xmlns="http://www.w3.org/2000/svg" viewBox="0 0 60 60"><defs><style>.cls-1{fill:#1f1f1f;}.cls-2{fill:none;}</style></defs><title>48</title><g id="_48" data-name="48"><path class="cls-1" d="M53.84,28.74a2,2,0,0,0-2,2A21.84,21.84,0,1,1,30,8.9a21.64,21.64,0,0,1,11.35,3.18l-3.48.15a2,2,0,0,0,.08,4l10.44-.45V5.42a2,2,0,1,0-4,0V9.3A25.6,25.6,0,0,0,30,4.9,25.84,25.84,0,1,0,55.84,30.74,2,2,0,0,0,53.84,28.74Z"/><path class="cls-1" d="M23.89,40.61H25a1,1,0,0,0,1.09-1.09V35.86h1.51c.57,0,.88-.36.88-1.07v-.65a1,1,0,0,0-1.09-1.07h-1.3V23.25A1,1,0,0,0,25,22.15H23a1.38,1.38,0,0,0-1.3.7L14.58,33.2a2.15,2.15,0,0,0-.39,1.33v.26a1,1,0,0,0,1.07,1.07h7.57v3.67A1,1,0,0,0,23.89,40.61Zm-6.16-7.54V33L22,27.12a10.71,10.71,0,0,0,.91-1.69H23a17.71,17.71,0,0,0-.13,1.92v5.72Z"/><path class="cls-1" d="M30.7,35.39c0,3,2.6,5.54,6.6,5.54s6.55-2.68,6.55-5.46a4.58,4.58,0,0,0-2.55-4,7.11,7.11,0,0,0,2.08-4.63c0-3-2.57-5-6.06-5-4,0-5.9,2.52-5.9,5a4.37,4.37,0,0,0,2.11,3.69A6.24,6.24,0,0,0,30.7,35.39Zm6.66-10.63c1.69,0,2.78.88,2.78,2.47a5.33,5.33,0,0,1-1.22,3.07c-2.21-.94-4.21-1.59-4.21-3.38C34.71,25.72,35.59,24.75,37.36,24.75ZM35.8,31.9c2.68,1.2,4.63,1.74,4.63,3.51A2.84,2.84,0,0,1,37.33,38a3.06,3.06,0,0,1-3.28-3A4.22,4.22,0,0,1,35.8,31.9Z"/><rect class="cls-2" width="60" height="60"/></g></svg>