<svg xmlns="http://www.w3.org/2000/svg" viewBox="0 0 60 60"><defs><style>.cls-1,.cls-3{fill:none;}.cls-1{stroke:#000;stroke-width:0px;opacity:0.01;}.cls-2{fill:#1f1f1f;}</style></defs><title>arrow_down_round</title><g id="arrow_down_round"><rect class="cls-1" x="4.5" y="4.5" width="51" height="51"/><path class="cls-2" d="M30,4.32A25.68,25.68,0,1,0,55.68,30,25.7,25.7,0,0,0,30,4.32Zm0,47.35A21.68,21.68,0,1,1,51.68,30,21.7,21.7,0,0,1,30,51.68Z"/><path class="cls-2" d="M40.34,28,32,36.34V18a2,2,0,0,0-4,0V36.4l-8.34-8.34a2,2,0,0,0-2.83,2.83L30,44l13.2-13.2A2,2,0,0,0,40.34,28Z"/><rect class="cls-3" width="60" height="60"/></g></svg>