<?xml version="1.0" encoding="utf-8"?>
<!-- Generator: Adobe Illustrator 21.1.0, SVG Export Plug-In . SVG Version: 6.00 Build 0)  -->
<svg version="1.1" id="Capa_1" xmlns="http://www.w3.org/2000/svg" xmlns:xlink="http://www.w3.org/1999/xlink" x="0px" y="0px"
	 viewBox="0 0 284.9 284.9" style="enable-background:new 0 0 284.9 284.9;" xml:space="preserve">
<style type="text/css">
	.st0{fill:#D4007A;}
</style>
<g>
	<path class="st0" d="M221.9,135L88.8,3.5c-1.9-1.9-4.1-2.9-6.6-2.8s-4.7,1-6.6,2.9L61.5,17.9c-1.9,1.9-2.9,4.1-2.8,6.6
		s0.9,4.7,2.9,6.5l112.3,110.7l-111,112.2c-1.9,1.9-2.9,4.1-2.8,6.6c0,2.5,0.9,4.7,2.9,6.5l14.3,14c1.9,1.9,4.1,2.9,6.6,2.8
		c2.5,0,4.7-1,6.6-2.9l131.6-133c1.9-1.9,2.9-4.1,2.8-6.6C224.8,138.9,223.8,136.8,221.9,135z"/>
</g>
</svg>
