<svg xmlns="http://www.w3.org/2000/svg" viewBox="0 0 60 60"><defs><style>.cls-1{fill:#1f1f1f;}.cls-2{fill:none;}</style></defs><title>basket</title><g id="basket"><path class="cls-1" d="M54.32,19.32a2,2,0,0,0-1.57-.76h-33L17.37,10a2,2,0,0,0-1.93-1.46H7.25a2,2,0,0,0,0,4h6.68l7.89,28.22a5.69,5.69,0,1,0,8.46,5c0-.06,0-.12,0-.18h8.65a5.69,5.69,0,0,0,9.71,4.21h0a5.69,5.69,0,0,0-7.88-8.21H28.42a5.64,5.64,0,0,0-2.62-1.38l-.45-1.62H49A2,2,0,0,0,51,37L54.7,21A2,2,0,0,0,54.32,19.32ZM25.78,46.94h0a1.7,1.7,0,1,1,0-2.4,1.7,1.7,0,0,1,0,2.4Zm20.51-1.2a1.7,1.7,0,1,1-.5-1.2A1.69,1.69,0,0,1,46.29,45.74Zm1.14-11.18H24.23l-3.35-12H50.23Z"/><rect class="cls-2" width="60" height="60"/></g></svg>