<svg xmlns="http://www.w3.org/2000/svg" viewBox="0 0 60 60"><defs><style>.cls-1{fill:#1f1f1f;}.cls-2{fill:none;}</style></defs><title>bell_cross</title><g id="bell_cross"><path class="cls-1" d="M53.19,44.61s-4.69-4.91-6.45-9.17a23.18,23.18,0,0,1-.62-4.92C45.62,23.28,44.7,10.1,32,8.88V8a2,2,0,0,0-4,0v.88C15.37,10.15,14.41,23.23,13.89,30.43a23.12,23.12,0,0,1-.63,4.88c-1.76,4.28-6.42,9.27-6.47,9.32A2,2,0,0,0,8.26,48H23.37a6.64,6.64,0,0,0,13.26,0H51.74a2,2,0,0,0,1.44-3.39ZM30,50.27A2.65,2.65,0,0,1,27.39,48h5.22A2.65,2.65,0,0,1,30,50.27ZM12.56,44A33.26,33.26,0,0,0,17,36.83a22.17,22.17,0,0,0,.92-6.11C18.59,20.9,20,12.77,30,12.77s11.41,8.16,12.08,18A22.16,22.16,0,0,0,43,37a31.85,31.85,0,0,0,4.35,7Z"/><rect class="cls-2" width="60" height="60"/></g></svg>