<svg xmlns="http://www.w3.org/2000/svg" viewBox="0 0 60 60"><defs><style>.cls-1{fill:#1f1f1f;}.cls-2{fill:none;}</style></defs><title>bell</title><g id="bell"><path class="cls-1" d="M46.74,33.8h0a23.15,23.15,0,0,1-.62-4.92,54.47,54.47,0,0,0-1.22-9.22l9-9L51.09,7.82l-7.62,7.62A13.22,13.22,0,0,0,32,7.23V6.35a2,2,0,1,0-4,0v.88C15.37,8.5,14.41,21.59,13.89,28.79a23.08,23.08,0,0,1-.63,4.88C11.5,37.94,6.84,42.94,6.8,43a2,2,0,0,0,1.46,3.37h4.29L6.09,52.82l2.83,2.83,9.29-9.29h5.17a6.64,6.64,0,0,0,13.26,0H51.74A2,2,0,0,0,53.19,43S48.49,38.06,46.74,33.8ZM12.56,42.35A33.26,33.26,0,0,0,17,35.19a22.16,22.16,0,0,0,.92-6.11C18.59,19.26,20,11.13,30,11.13c6,0,8.87,2.91,10.38,7.35L16.55,42.35ZM30,48.63a2.65,2.65,0,0,1-2.61-2.27h5.22A2.64,2.64,0,0,1,30,48.63ZM22.2,42.35l19.3-19.3c.29,1.91.48,4,.63,6.1A22.16,22.16,0,0,0,43,35.32a31.84,31.84,0,0,0,4.35,7Z"/><rect class="cls-2" width="60" height="60"/></g></svg>