<svg xmlns="http://www.w3.org/2000/svg" viewBox="0 0 60 60"><defs><style>.cls-1{fill:#1f1f1f;}.cls-2{fill:none;}</style></defs><title>box</title><g id="box"><path class="cls-1" d="M54.48,21.79a2,2,0,0,0,0-.22s0-.08,0-.12l-3.64-14A2,2,0,0,0,48.86,6H13.31a2,2,0,0,0-1.85,1.23l-5.81,14A2,2,0,0,0,5.5,22V52a2,2,0,0,0,2,2h45a2,2,0,0,0,2-2V22C54.5,21.9,54.48,21.85,54.48,21.79ZM35.5,10H47.31l2.61,10H35.5ZM14.64,10H24.5V20h-14ZM50.5,50H9.5V24h15v5h11V24h15Z"/><rect class="cls-2" width="60" height="60"/></g></svg>