<svg xmlns="http://www.w3.org/2000/svg" viewBox="0 0 60 60"><defs><style>.cls-1{fill:#1f1f1f;}.cls-2{fill:none;}</style></defs><title>calendar</title><g id="calendar"><path class="cls-1" d="M48.52,8.82H45V7a2,2,0,0,0-4,0V8.82H32V7a2,2,0,0,0-4,0V8.82H19V7a2,2,0,0,0-4,0V8.82H11.48a6.26,6.26,0,0,0-6.25,6.25V48.72A6.26,6.26,0,0,0,11.48,55h37a6.26,6.26,0,0,0,6.25-6.25V15.07A6.26,6.26,0,0,0,48.52,8.82Zm-37,4H15V14a2,2,0,0,0,4,0V12.82h9V14a2,2,0,1,0,4,0V12.82h9V14a2,2,0,1,0,4,0V12.82h3.52a2.25,2.25,0,0,1,2.25,2.25v4H9.23v-4A2.25,2.25,0,0,1,11.48,12.82ZM48.52,51h-37a2.25,2.25,0,0,1-2.25-2.25V23H50.77V48.72A2.25,2.25,0,0,1,48.52,51Z"/><rect class="cls-1" x="13.5" y="28.03" width="6" height="7"/><rect class="cls-1" x="22.5" y="28.03" width="6" height="7"/><rect class="cls-1" x="31.5" y="28.03" width="6" height="7"/><rect class="cls-1" x="40.5" y="28.03" width="6" height="7"/><rect class="cls-1" x="13.5" y="38.03" width="6" height="7"/><rect class="cls-1" x="22.5" y="38.03" width="6" height="7"/><rect class="cls-1" x="31.5" y="38.03" width="6" height="7"/><rect class="cls-1" x="40.5" y="38.03" width="6" height="7"/><rect class="cls-2" width="60" height="60"/></g></svg>