<svg xmlns="http://www.w3.org/2000/svg" viewBox="0 0 60 60"><defs><style>.cls-1{fill:#1f1f1f;}.cls-2{fill:none;}</style></defs><title>cat</title><g id="cat"><circle class="cls-1" cx="21.05" cy="26.86" r="2.74"/><circle class="cls-1" cx="38.95" cy="26.86" r="2.74"/><path class="cls-1" d="M55,37.36H53.17c.12-.33.22-.66.33-1H55a2,2,0,0,0,0-4h-.6a26.93,26.93,0,0,0,.28-3.86c-.05-1.68-.59-16.58-2.95-21.54A2,2,0,0,0,49.1,6a29.8,29.8,0,0,0-8.8,6.45,39.46,39.46,0,0,0-10-1.39,39.44,39.44,0,0,0-10.07,1.4A30.46,30.46,0,0,0,11,6,2,2,0,0,0,8.42,7c-2.35,5-3,19.78-3.1,21.54a26.83,26.83,0,0,0,.28,3.86H5a2,2,0,0,0,0,4H6.51c.1.34.21.67.33,1H5a2,2,0,0,0,0,4H8.65A24.53,24.53,0,0,0,30,54.19,24.52,24.52,0,0,0,51.35,41.36H55a2,2,0,0,0,0-4ZM30,50.19a20.4,20.4,0,0,1-16.65-8.83H15a2,2,0,0,0,0-4H11.12q-.21-.49-.4-1H15a2,2,0,0,0,0-4H9.65a22.49,22.49,0,0,1-.32-3.78c.15-3.71.79-13.1,2-17.94A25.73,25.73,0,0,1,18,16a2,2,0,0,0,2.16.59A35.41,35.41,0,0,1,30.26,15a35.43,35.43,0,0,1,10.07,1.57A2,2,0,0,0,42.51,16a25,25,0,0,1,6.28-5.3C50,15.55,50.56,24.9,50.68,28.56a22.63,22.63,0,0,1-.33,3.8H45a2,2,0,0,0,0,4h4.28q-.19.51-.4,1H45a2,2,0,0,0,0,4h1.66A20.38,20.38,0,0,1,30,50.19Z"/><path class="cls-1" d="M37.72,35a2,2,0,0,0-2.36,1.55,2.38,2.38,0,0,1-2.27,1.93c-.35-.06-1.14-.89-1.47-1.24l-.2-.21A2,2,0,0,0,30,36.43h0a2,2,0,0,0-1.44.61l-.22.23c-.33.35-1.11,1.16-1.42,1.22a2.33,2.33,0,0,1-2.25-1.93,2,2,0,1,0-3.92.81,6.29,6.29,0,0,0,6.17,5.12A4.83,4.83,0,0,0,30,41.21a4.86,4.86,0,0,0,3.09,1.27,6.4,6.4,0,0,0,6.21-5.12A2,2,0,0,0,37.72,35Z"/><rect class="cls-2" width="60" height="60"/></g></svg>