<svg xmlns="http://www.w3.org/2000/svg" viewBox="0 0 60 60"><defs><style>.cls-1{fill:#1f1f1f;}.cls-2{fill:none;}</style></defs><title>check_round</title><g id="check_round"><path class="cls-1" d="M30,4.32A25.68,25.68,0,1,0,55.68,30,25.71,25.71,0,0,0,30,4.32Zm0,47.35A21.68,21.68,0,1,1,51.68,30,21.7,21.7,0,0,1,30,51.68Z"/><path class="cls-1" d="M39.65,23.26,26.91,34.55l-6.52-6a2,2,0,1,0-2.71,2.94l7.85,7.23a2,2,0,0,0,2.68,0L42.3,26.26a2,2,0,0,0-2.65-3Z"/><rect class="cls-2" width="60" height="60"/></g></svg>