<svg xmlns="http://www.w3.org/2000/svg" viewBox="0 0 60 60"><defs><style>.cls-1{fill:#1f1f1f;}.cls-2{fill:none;}</style></defs><title>clock_1</title><g id="clock_1"><path class="cls-1" d="M30,4.32A25.68,25.68,0,1,0,55.68,30,25.71,25.71,0,0,0,30,4.32Zm0,47.35A21.68,21.68,0,1,1,51.68,30,21.7,21.7,0,0,1,30,51.68Z"/><path class="cls-1" d="M30.1,25.46,25.18,14.72a2,2,0,0,0-3.64,1.67l4.93,10.76a4.52,4.52,0,0,0,3.39,7.39l.56,1.22a2,2,0,0,0,3.64-1.67l-.56-1.22a4.52,4.52,0,0,0-3.4-7.42Z"/><rect class="cls-2" width="60" height="60"/></g></svg>