<svg xmlns="http://www.w3.org/2000/svg" viewBox="0 0 60 60"><defs><style>.cls-1{fill:#1f1f1f;}.cls-2{fill:none;}</style></defs><title>clock_3</title><g id="clock_3"><path class="cls-1" d="M50.88,17.27l.41-.33A2.5,2.5,0,0,0,48.16,13l-.58.46A25.63,25.63,0,0,0,35.47,7.1a2.5,2.5,0,0,0-.47-5H25a2.5,2.5,0,0,0-.47,5A25.7,25.7,0,1,0,50.88,17.27ZM30,53.86A21.68,21.68,0,1,1,51.68,32.18,21.7,21.7,0,0,1,30,53.86Z"/><path class="cls-1" d="M41,29.14H32v-13a2,2,0,0,0-4,0v15a2,2,0,0,0,2,2H41a2,2,0,0,0,0-4Z"/><rect class="cls-2" width="60" height="60"/></g></svg>