<svg xmlns="http://www.w3.org/2000/svg" viewBox="0 0 60 60"><defs><style>.cls-1{fill:#1f1f1f;}.cls-2{fill:none;}</style></defs><title>clock_2</title><g id="clock_2"><path class="cls-1" d="M30,55.68A25.68,25.68,0,1,1,55.68,30,25.7,25.7,0,0,1,30,55.68ZM30,8.32A21.68,21.68,0,1,0,51.68,30,21.7,21.7,0,0,0,30,8.32Z"/><path class="cls-1" d="M38.23,40.17a2,2,0,0,1-1.4-.57L29,31.93a2,2,0,0,1-.6-1.39l-.29-15.09a2,2,0,0,1,4-.08l.27,14.27,7.25,7.09a2,2,0,0,1-1.4,3.43Z"/><rect class="cls-2" width="60" height="60"/></g></svg>