<svg xmlns="http://www.w3.org/2000/svg" viewBox="0 0 60 60"><defs><style>.cls-1{fill:#1f1f1f;}.cls-2{fill:none;}</style></defs><title>cloud_thunderbolt</title><g id="cloud_thunderbolt"><polygon class="cls-1" points="33.05 23.21 22.58 40.9 29.35 40.9 27.7 53.59 38.17 35.9 31.4 35.9 33.05 23.21"/><path class="cls-1" d="M58.16,32.52a9.85,9.85,0,0,0-3.38-7.75A11.67,11.67,0,0,0,52.49,23,11.1,11.1,0,0,0,41.64,12.47a10.45,10.45,0,0,0-1.19.07,10,10,0,0,0-3.28.74A14.26,14.26,0,0,0,24.83,6.41c-7.78,0-14.1,6-14.1,13.33a12.7,12.7,0,0,0,.08,1.46c-5.31,1.52-9,6-9,11.16a11.09,11.09,0,0,0,3,7.48,11.16,11.16,0,0,0,5.26,3.44,13.84,13.84,0,0,0,4.16.78c.52,0,1.07.06,1.64.06h1.36a2,2,0,0,0,0-4H15.87c-.47,0-.92,0-1.43-.05a10.13,10.13,0,0,1-3.08-.58,7.28,7.28,0,0,1-3.49-2.23l-.08-.09a7,7,0,0,1-2-4.81c0-3.75,3.23-7,7.52-7.62a2,2,0,0,0,1.7-2.29q0-.32-.09-.63a2,2,0,0,0,0-.2,8.72,8.72,0,0,1-.2-1.88c0-5.14,4.53-9.33,10.1-9.33a10.07,10.07,0,0,1,9.57,6.33,2,2,0,0,0,3,.94,6.09,6.09,0,0,1,3.28-1.15h.15a6.37,6.37,0,0,1,.78,0,7.14,7.14,0,0,1,6.87,7.36c0,.11,0,.22,0,.33a2,2,0,0,0,1.18,1.91A7.75,7.75,0,0,1,52,27.65l.08.08a5.84,5.84,0,0,1,2.07,4.7s0,.15,0,.19v.1a7.61,7.61,0,0,1-7.82,7.36h-4a2,2,0,0,0,0,4h4A11.61,11.61,0,0,0,58.16,32.73Z"/><rect class="cls-2" width="60" height="60"/></g></svg>