<?xml version="1.0" encoding="utf-8"?>
<!-- Generator: Adobe Illustrator 22.1.0, SVG Export Plug-In . SVG Version: 6.00 Build 0)  -->
<svg version="1.1" id="Calque_1" xmlns="http://www.w3.org/2000/svg" xmlns:xlink="http://www.w3.org/1999/xlink" x="0px" y="0px"
	 viewBox="0 0 56.7 56.7" style="enable-background:new 0 0 56.7 56.7;" xml:space="preserve">
<style type="text/css">
	.st0{fill:#D4007A;}
</style>
<g>
	<circle class="st0" cx="7.1" cy="13.6" r="5"/>
	<path class="st0" d="M44.9,16.6h-20c-1.8,0-3.3-1.5-3.3-3.3l0,0c0-1.8,1.5-3.3,3.3-3.3h19.9c1.8,0,3.3,1.5,3.3,3.3l0,0
		C48.2,15.1,46.7,16.6,44.9,16.6z"/>
	<circle class="st0" cx="7.1" cy="28.7" r="5"/>
	<path class="st0" d="M52.3,31.7H24.9c-1.8,0-3.3-1.5-3.3-3.3l0,0c0-1.8,1.5-3.3,3.3-3.3h27.4c1.8,0,3.3,1.5,3.3,3.3l0,0
		C55.6,30.2,54.1,31.7,52.3,31.7z"/>
	<circle class="st0" cx="7.1" cy="43.9" r="5"/>
	<path class="st0" d="M40.7,46.9H24.9c-1.8,0-3.3-1.5-3.3-3.3l0,0c0-1.8,1.5-3.3,3.3-3.3h15.7c1.8,0,3.3,1.5,3.3,3.3l0,0
		C44,45.4,42.5,46.9,40.7,46.9z"/>
</g>
</svg>
