<svg xmlns="http://www.w3.org/2000/svg" viewBox="0 0 60 60"><defs><style>.cls-1{fill:#1f1f1f;}.cls-2{fill:none;}</style></defs><title>cross_square</title><g id="cross_square"><path class="cls-1" d="M52.5,5.5H7.5a2,2,0,0,0-2,2v45a2,2,0,0,0,2,2h45a2,2,0,0,0,2-2V7.5A2,2,0,0,0,52.5,5.5Zm-2,45H9.5V9.5h41Z"/><path class="cls-1" d="M18.73,41.27a2,2,0,0,0,2.83,0L30,32.83l8.44,8.44a2,2,0,0,0,2.83-2.83L32.83,30l8.44-8.44a2,2,0,0,0-2.83-2.83L30,27.17l-8.44-8.44a2,2,0,0,0-2.83,2.83L27.17,30l-8.44,8.44A2,2,0,0,0,18.73,41.27Z"/><rect class="cls-2" width="60" height="60"/></g></svg>