<svg xmlns="http://www.w3.org/2000/svg" viewBox="0 0 60 60"><defs><style>.cls-1{fill:#1f1f1f;}.cls-2{fill:none;}</style></defs><title>cross_round</title><g id="cross_round"><path class="cls-1" d="M30,4.32A25.68,25.68,0,1,0,55.68,30,25.7,25.7,0,0,0,30,4.32Zm0,47.35A21.68,21.68,0,1,1,51.68,30,21.7,21.7,0,0,1,30,51.68Z"/><path class="cls-1" d="M41.27,18.73a2,2,0,0,0-2.83,0L30,27.17l-8.44-8.44a2,2,0,0,0-2.83,2.83L27.17,30l-8.44,8.44a2,2,0,1,0,2.83,2.83L30,32.83l8.44,8.44a2,2,0,0,0,2.83-2.83L32.83,30l8.44-8.44A2,2,0,0,0,41.27,18.73Z"/><rect class="cls-2" width="60" height="60"/></g></svg>