<svg xmlns="http://www.w3.org/2000/svg" viewBox="0 0 60 60"><defs><style>.cls-1{fill:#1f1f1f;}.cls-2{fill:none;}</style></defs><title>document</title><g id="document"><path class="cls-1" d="M44.53,5.46H25l-.18,0-.18,0a2,2,0,0,0-1.44.61L11.93,17.8a2,2,0,0,0-.56,1.39c0,.06,0,.12,0,.18s0,.12,0,.18V50.44a4.1,4.1,0,0,0,4.1,4.1H44.53a4.1,4.1,0,0,0,4.09-4.1V9.56A4.1,4.1,0,0,0,44.53,5.46Zm-21.2,6.28v6.11H17.44ZM44.63,50.44a.09.09,0,0,1-.09.1H15.47a.09.09,0,0,1-.1-.1V21.85h9.3a2.66,2.66,0,0,0,2.66-2.66V9.46h17.2a.09.09,0,0,1,.09.1Z"/><rect class="cls-2" width="60" height="60"/></g></svg>