<svg xmlns="http://www.w3.org/2000/svg" viewBox="0 0 60 60"><defs><style>.cls-1{fill:#1f1f1f;}.cls-2{fill:none;}</style></defs><title>euro_round</title><g id="euro_round"><path class="cls-1" d="M30,4.32A25.68,25.68,0,1,0,55.68,30,25.7,25.7,0,0,0,30,4.32Zm0,47.35A21.68,21.68,0,1,1,51.68,30,21.7,21.7,0,0,1,30,51.68Z"/><path class="cls-1" d="M35.61,38.7c-.13-.83-.7-1.12-1.54-1a11.69,11.69,0,0,1-1.66.13A6.75,6.75,0,0,1,26,33.36h5.41a1.26,1.26,0,0,0,1.47-1.18c.16-.8-.22-1.25-1.25-1.25H25.24a6.89,6.89,0,0,1,0-2h7a1.27,1.27,0,0,0,1.47-1.22c.16-.83-.19-1.25-1.25-1.25H25.82a6.59,6.59,0,0,1,6.43-4.38,9.78,9.78,0,0,1,1.5.13c.67.1,1.12-.22,1.34-1L35.42,20a1.15,1.15,0,0,0-1-1.6,17.21,17.21,0,0,0-2-.16A11.26,11.26,0,0,0,21.4,26.48h-1c-.93,0-1.25.42-1.25,1.22a1.09,1.09,0,0,0,1.25,1.25H21a8.11,8.11,0,0,0,0,2h-.58c-.93,0-1.22.42-1.22,1.22s.29,1.22,1.22,1.22h1a11,11,0,0,0,10.94,8.38,12.49,12.49,0,0,0,2.5-.26,1.19,1.19,0,0,0,1-1.57Z"/><rect class="cls-2" width="60" height="60"/></g></svg>