<svg xmlns="http://www.w3.org/2000/svg" viewBox="0 0 60 60"><defs><style>.cls-1{fill:#d64618;}.cls-2{fill:none;}</style></defs><title>exclamation_round</title><g id="exclamation_round"><path class="cls-1" d="M30,4.32A25.68,25.68,0,1,0,55.68,30,25.7,25.7,0,0,0,30,4.32Zm0,47.35A21.68,21.68,0,1,1,51.68,30,21.7,21.7,0,0,1,30,51.68Z"/><path class="cls-1" d="M29.62,35.09h.7A1,1,0,0,0,31.41,34l.16-14.27a1,1,0,0,0-1.06-1.06H29.42a.94.94,0,0,0-1,1.06L28.56,34A1,1,0,0,0,29.62,35.09Z"/><rect class="cls-1" x="28.4" y="38.16" width="3.2" height="3.14" rx="1.06" ry="1.06"/><rect class="cls-2" width="60" height="60"/></g></svg>