<svg xmlns="http://www.w3.org/2000/svg" viewBox="0 0 60 60"><defs><style>.cls-1{fill:#1f1f1f;}.cls-2{fill:none;}</style></defs><title>exclamation_bubble</title><g id="exclamation_bubble"><path class="cls-1" d="M29.79,34.9h.7a1,1,0,0,0,1.08-1.06l.08-14.27a1,1,0,0,0-1.06-1H29.51a.94.94,0,0,0-1,1.06l.24,14.27A1,1,0,0,0,29.79,34.9Z"/><rect class="cls-1" x="28.6" y="37.97" width="3.2" height="3.14" rx="1.06" ry="1.06" transform="translate(-0.23 0.17) rotate(-0.33)"/><path class="cls-1" d="M29.85,4.14A25.8,25.8,0,0,0,8,43.33L4.42,53.19A2,2,0,0,0,7,55.74l9.8-3.65a25.8,25.8,0,1,0,13.05-48Zm.27,47.59a21.69,21.69,0,0,1-12-3.53,2,2,0,0,0-1.79-.2L9.64,50.49l2.41-6.73A2,2,0,0,0,11.84,42a21.79,21.79,0,1,1,18.29,9.75Z"/><rect class="cls-2" width="60" height="60"/></g></svg>