<svg xmlns="http://www.w3.org/2000/svg" viewBox="0 0 60 60"><defs><style>.cls-1{fill:#d4007a;}.cls-2{fill:none;}</style></defs><title>face_sad</title><g id="face_sad"><path class="cls-1" d="M30,4.32A25.68,25.68,0,1,0,55.68,30,25.71,25.71,0,0,0,30,4.32Zm0,47.35A21.68,21.68,0,1,1,51.68,30,21.7,21.7,0,0,1,30,51.68Z"/><path class="cls-1" d="M30,33.21a8.48,8.48,0,0,0-7.62,4.71A2,2,0,0,0,26,39.72a4.52,4.52,0,0,1,8.09,0,2,2,0,1,0,3.58-1.79A8.48,8.48,0,0,0,30,33.21Z"/><circle class="cls-1" cx="21.31" cy="23.86" r="2.66"/><circle class="cls-1" cx="38.69" cy="23.86" r="2.66"/><rect class="cls-2" width="60" height="60"/></g></svg>