<svg xmlns="http://www.w3.org/2000/svg" viewBox="0 0 60 60"><defs><style>.cls-1{fill:#1f1f1f;}.cls-2{fill:none;}</style></defs><title>face_confused</title><g id="face_confused"><path class="cls-1" d="M30,4.32A25.68,25.68,0,1,0,55.68,30,25.71,25.71,0,0,0,30,4.32Zm0,47.35A21.68,21.68,0,1,1,51.68,30,21.7,21.7,0,0,1,30,51.68Z"/><circle class="cls-1" cx="21.31" cy="23.86" r="2.66"/><circle class="cls-1" cx="38.69" cy="23.86" r="2.66"/><path class="cls-1" d="M20.67,33.7a2.12,2.12,0,1,0,0,4.24c8,0,11.4,4.47,11.53,4.65a2.12,2.12,0,0,0,3.46-2.44C35.47,39.88,31,33.7,20.67,33.7Z"/><rect class="cls-2" width="60" height="60"/></g></svg>