<svg xmlns="http://www.w3.org/2000/svg" viewBox="0 0 60 60"><defs><style>.cls-1{fill:#1f1f1f;}.cls-2{fill:#fff;}.cls-3{fill:none;}</style></defs><title>flag_round</title><g id="flag_round"><path class="cls-1" d="M30,4.32A25.68,25.68,0,1,0,55.68,30,25.7,25.7,0,0,0,30,4.32Z"/><path class="cls-2" d="M24.76,42.7h-3V21.2a1.5,1.5,0,0,1,1.5-1.5H36.74A1.5,1.5,0,0,1,38,22.08l-3.72,5.05,1.33,1.53,2.1,2.59a1.5,1.5,0,0,1-1.17,2.44H24.76Zm0-12h8.59l-.09-.11-2.09-2.41a1.5,1.5,0,0,1-.07-1.89l2.69-3.6h-9Z"/><rect class="cls-3" width="60" height="60"/></g></svg>