<svg xmlns="http://www.w3.org/2000/svg" viewBox="0 0 60 60"><defs><style>.cls-1{fill:#1f1f1f;}.cls-2{fill:none;}</style></defs><title>garbage</title><g id="garbage"><path class="cls-1" d="M48,11.5H40.42c-.4-3-2.3-5-4.8-5H24.38c-2.5,0-4.39,2-4.8,5H12a2,2,0,0,0,0,4h2V48.25c0,3.09,2.4,5.25,5.83,5.25H40.36c3.38,0,5.64-2.11,5.64-5.25V15.5h2a2,2,0,0,0,0-4Zm-23.62-1H35.62c.28,0,.55.41.72,1H23.66C23.83,10.91,24.1,10.5,24.38,10.5ZM42,48.25c0,.37,0,1.25-1.64,1.25H19.83c-.68,0-1.83-.16-1.83-1.25V15.5H42Z"/><path class="cls-1" d="M23,18.5a2,2,0,0,0-2,2v24a2,2,0,0,0,4,0v-24A2,2,0,0,0,23,18.5Z"/><path class="cls-1" d="M30,18.5a2,2,0,0,0-2,2v24a2,2,0,0,0,4,0v-24A2,2,0,0,0,30,18.5Z"/><path class="cls-1" d="M37,18.5a2,2,0,0,0-2,2v24a2,2,0,0,0,4,0v-24A2,2,0,0,0,37,18.5Z"/><rect class="cls-2" width="60" height="60"/></g></svg>