<svg xmlns="http://www.w3.org/2000/svg" viewBox="0 0 60 60"><defs><style>.cls-1{fill:#1f1f1f;}.cls-2{fill:none;}</style></defs><title>gearwheel</title><g id="gearwheel"><path class="cls-1" d="M29,18.52a11.69,11.69,0,0,0,1,23.34c.33,0,.67,0,1,0a11.69,11.69,0,1,0-2-23.3Zm6.85,16.61a7.63,7.63,0,0,1-5.23,2.7h0a7.69,7.69,0,1,1-1.29-15.33l.65,0a7.69,7.69,0,0,1,5.87,12.65Z"/><path class="cls-1" d="M50.93,34.72a4.41,4.41,0,0,0,4-4.76l-.35-4.1a4.41,4.41,0,0,0-4.75-4h0L47.7,22a19.24,19.24,0,0,0-1-1.83l1.41-1.67a4.41,4.41,0,0,0-.52-6.2L44.47,9.68a4.41,4.41,0,0,0-6.2.52l-1.46,1.73a19.38,19.38,0,0,0-1.9-.6l-.19-2.26a4.42,4.42,0,0,0-4.75-4l-4.1.35a4.4,4.4,0,0,0-4,4.75L22,12.41a19.35,19.35,0,0,0-1.77.91l-1.73-1.46a4.41,4.41,0,0,0-6.2.52L9.68,15.53a4.41,4.41,0,0,0,.52,6.2l1.66,1.41a19.26,19.26,0,0,0-.65,2l-2.15.18a4.41,4.41,0,0,0-4,4.75l.35,4.1a4.41,4.41,0,0,0,4.75,4l2-.17a19.13,19.13,0,0,0,1,1.94l-1.31,1.55a4.41,4.41,0,0,0,.52,6.2l3.15,2.66a4.4,4.4,0,0,0,6.2-.52L23,48.32a19.34,19.34,0,0,0,2.14.69l.16,1.92a4.41,4.41,0,0,0,4.38,4l.37,0,4.11-.35a4.4,4.4,0,0,0,4-4.75L38,47.93a19.28,19.28,0,0,0,2-1l1.48,1.25a4.41,4.41,0,0,0,6.2-.52l2.65-3.14a4.41,4.41,0,0,0-.52-6.2L48.26,37a19.39,19.39,0,0,0,.65-2.07ZM47.08,31a2,2,0,0,0-1.81,1.67,15.31,15.31,0,0,1-1.25,4,2,2,0,0,0,.52,2.38l2.67,2.25a.4.4,0,0,1,.14.28.39.39,0,0,1-.09.29L44.61,45a.41.41,0,0,1-.57,0l-2.62-2.21a2,2,0,0,0-2.45-.1,15.4,15.4,0,0,1-3.77,2,2,2,0,0,0-1.32,2.05l.29,3.39a.4.4,0,0,1-.36.43L29.7,51a.41.41,0,0,1-.29-.1.39.39,0,0,1-.14-.27L29,47.21a2,2,0,0,0-1.65-1.8,15.37,15.37,0,0,1-4-1.31,2,2,0,0,0-2.4.51l-2.21,2.62a.39.39,0,0,1-.27.14.39.39,0,0,1-.29-.09L15,44.61a.41.41,0,0,1,0-.56l2.25-2.67a2,2,0,0,0,.12-2.43,15.35,15.35,0,0,1-1.9-3.74,2,2,0,0,0-2.06-1.34l-3.51.3a.41.41,0,0,1-.29-.1.4.4,0,0,1-.14-.27L9,29.7a.4.4,0,0,1,.37-.43L13,29a2,2,0,0,0,1.8-1.62,15.46,15.46,0,0,1,1.28-3.9,2,2,0,0,0-.51-2.4l-2.8-2.37a.41.41,0,0,1,0-.56L15.39,15a.41.41,0,0,1,.56,0l2.85,2.41a2,2,0,0,0,2.43.12,15.37,15.37,0,0,1,3.59-1.85,2,2,0,0,0,1.32-2.05l-.31-3.73a.38.38,0,0,1,.09-.29.39.39,0,0,1,.27-.14L30.3,9a.41.41,0,0,1,.43.37L31,13.13a2,2,0,0,0,1.64,1.8,15.37,15.37,0,0,1,3.85,1.22,2,2,0,0,0,2.38-.52l2.4-2.84a.41.41,0,0,1,.57,0L45,15.39a.41.41,0,0,1,.05.57l-2.37,2.8a2,2,0,0,0-.1,2.46,15.25,15.25,0,0,1,1.92,3.62,2,2,0,0,0,2,1.3l3.61-.3a.38.38,0,0,1,.29.1.39.39,0,0,1,.14.27L51,30.3a.4.4,0,0,1-.1.29.39.39,0,0,1-.27.14Z"/><rect class="cls-2" width="60" height="60"/></g></svg>