<svg xmlns="http://www.w3.org/2000/svg" viewBox="0 0 60 60"><defs><style>.cls-1{fill:#1f1f1f;}.cls-2{fill:none;}</style></defs><title>gift</title><g id="gift"><path class="cls-1" d="M46.62,5.51H13.38a7.88,7.88,0,0,0-7.87,7.87V46.62a7.88,7.88,0,0,0,7.87,7.87H46.62a7.88,7.88,0,0,0,7.87-7.87V13.38A7.88,7.88,0,0,0,46.62,5.51Zm3.87,7.87v9.78H32.56a8.12,8.12,0,0,0,1.94-1.28A5.31,5.31,0,0,0,36.31,18a4.66,4.66,0,0,0-1.22-3.29,4.55,4.55,0,0,0-3.28-1.22,5.32,5.32,0,0,0-3.86,1.81,7.33,7.33,0,0,0-1.08,1.57V9.51H46.62A3.87,3.87,0,0,1,50.49,13.38Zm-31.9,6.3A2.39,2.39,0,0,1,17.74,18a1.72,1.72,0,0,1,.35-1.12,1.69,1.69,0,0,1,1.08-.34h0a2.4,2.4,0,0,1,1.72.86,10.49,10.49,0,0,1,1.76,4.12A10.64,10.64,0,0,1,18.59,19.68Zm9.79,1.81a10.38,10.38,0,0,1,1.76-4.12,2.4,2.4,0,0,1,1.72-.86h0a1.69,1.69,0,0,1,1.08.34A1.72,1.72,0,0,1,33.31,18a2.39,2.39,0,0,1-.86,1.71A10.75,10.75,0,0,1,28.38,21.49Zm-15-12H23.87v6.83a6.58,6.58,0,0,0-.77-1,5.32,5.32,0,0,0-3.86-1.81A4.67,4.67,0,0,0,16,14.73,4.66,4.66,0,0,0,14.74,18a5.32,5.32,0,0,0,1.8,3.86,8.11,8.11,0,0,0,1.94,1.28h-9V13.38A3.87,3.87,0,0,1,13.38,9.51ZM9.51,46.62V26.15H21.24a25.77,25.77,0,0,1-4,4.11,1.5,1.5,0,0,0,1.9,2.32,29,29,0,0,0,4.69-4.92V50.49H13.38A3.87,3.87,0,0,1,9.51,46.62Zm37.11,3.87H26.87V27.67a29,29,0,0,0,4.69,4.92,1.5,1.5,0,1,0,1.9-2.32,25.77,25.77,0,0,1-4-4.11h21V46.62A3.87,3.87,0,0,1,46.62,50.49Z"/><rect class="cls-2" width="60" height="60"/></g></svg>