<?xml version="1.0" encoding="utf-8"?>
<!-- Generator: Adobe Illustrator 22.1.0, SVG Export Plug-In . SVG Version: 6.00 Build 0)  -->
<svg version="1.1" id="Calque_1" xmlns="http://www.w3.org/2000/svg" xmlns:xlink="http://www.w3.org/1999/xlink" x="0px" y="0px"
	 viewBox="0 0 56.7 56.7" style="enable-background:new 0 0 56.7 56.7;" xml:space="preserve">
<style type="text/css">
	.st0{fill:#D4007A;}
</style>
<g>
	<path class="st0" d="M52.3,31.7H5.5c-1.8,0-3.3-1.5-3.3-3.3l0,0c0-1.8,1.5-3.3,3.3-3.3h46.8c1.8,0,3.3,1.5,3.3,3.3l0,0
		C55.6,30.2,54.1,31.7,52.3,31.7z"/>
	<path class="st0" d="M52.3,47.1H5.5c-1.8,0-3.3-1.5-3.3-3.3l0,0c0-1.8,1.5-3.3,3.3-3.3h46.8c1.8,0,3.3,1.5,3.3,3.3l0,0
		C55.6,45.6,54.1,47.1,52.3,47.1z"/>
	<path class="st0" d="M52.3,16.8H5.5c-1.8,0-3.3-1.5-3.3-3.3l0,0c0-1.8,1.5-3.3,3.3-3.3h46.8c1.8,0,3.3,1.5,3.3,3.3l0,0
		C55.6,15.3,54.1,16.8,52.3,16.8z"/>
</g>
</svg>
