<svg xmlns="http://www.w3.org/2000/svg" viewBox="0 0 60 60"><defs><style>.cls-1{fill:#1f1f1f;}.cls-2{fill:none;}</style></defs><title>heart</title><g id="heart"><path class="cls-1" d="M30,51.48a2.05,2.05,0,0,1-1.22-.41h0L28.71,51l-.14-.13h0l-.14-.16-1.32-1.4a71.77,71.77,0,0,0-7.3-5.91L19.19,43C13.07,38.41,5.45,32.76,5.45,23.61A15.58,15.58,0,0,1,9.83,12.49a13,13,0,0,1,8.88-4c4.94,0,7.73,1,11.29,4.18,3.55-3.21,6.35-4.18,11.29-4.18a13,13,0,0,1,8.88,4,15.58,15.58,0,0,1,4.38,11.12c0,9.15-7.62,14.8-13.74,19.34l-.62.46a71.64,71.64,0,0,0-7.31,5.92l-1.35,1.44A2.08,2.08,0,0,1,30,51.48Zm-1.7-.92.13.17ZM30,49.45h0ZM18.71,12.52c-3.88,0-9.26,3.85-9.26,11.08s6.44,11.92,12.12,16.13l.63.46A71.76,71.76,0,0,1,30,46.56a72.07,72.07,0,0,1,7.8-6.35l.63-.47c5.68-4.21,12.12-9,12.12-16.13s-5.38-11.08-9.26-11.08c-4.21,0-6.11.6-9.84,4.33l-.21.19h0a2,2,0,0,1-1,.41,2.05,2.05,0,0,1-1.32-.31h0a2.09,2.09,0,0,1-.35-.28C24.83,13.12,22.92,12.52,18.71,12.52ZM30,15.44h0Z"/><rect class="cls-2" width="60" height="60"/></g></svg>