<svg xmlns="http://www.w3.org/2000/svg" viewBox="0 0 60 60"><defs><style>.cls-1{fill:#1f1f1f;}.cls-2{fill:none;}</style></defs><title>home</title><g id="home"><path class="cls-1" d="M54.9,28.55l-4-17A2,2,0,0,0,49,10H11a2,2,0,0,0-1.95,1.55l-4,17A2,2,0,0,0,7,31H8V48a2,2,0,0,0,2,2H36.95V37h5V50h8a2,2,0,0,0,2-2V31h1a2,2,0,0,0,1.95-2.45ZM12.6,14H47.41l3,13H9.57ZM48,46H46V35a2,2,0,0,0-2-2H35a2,2,0,0,0-2,2V46H12V31H48Z"/><path class="cls-1" d="M16.49,44h12a2,2,0,0,0,2-2V35a2,2,0,0,0-2-2h-12a2,2,0,0,0-2,2v7A2,2,0,0,0,16.49,44Zm2-7h8v3h-8Z"/><rect class="cls-2" width="60" height="60"/></g></svg>