<svg xmlns="http://www.w3.org/2000/svg" viewBox="0 0 60 60"><defs><style>.cls-1{fill:#1f1f1f;}.cls-2{fill:none;}</style></defs><title>infos_round</title><g id="infos_round"><path class="cls-1" d="M30,4.32A25.68,25.68,0,1,0,55.68,30,25.71,25.71,0,0,0,30,4.32Zm0,47.35A21.68,21.68,0,1,1,51.68,30,21.7,21.7,0,0,1,30,51.68Z"/><path class="cls-1" d="M30.13,21.07a1.7,1.7,0,0,0,1.26-.53,1.74,1.74,0,0,0,.52-1.27,1.77,1.77,0,0,0-1.78-1.78,1.73,1.73,0,0,0-1.27.52,1.79,1.79,0,0,0,1.27,3Z"/><path class="cls-1" d="M31.81,40.87a5.93,5.93,0,0,1-.22-2V25.92h-.77l-4.85,2,.25.63a3.52,3.52,0,0,1,1.2-.26,1.09,1.09,0,0,1,.72.22,1.38,1.38,0,0,1,.39.78,21.94,21.94,0,0,1,.16,3.39v6.21a5.68,5.68,0,0,1-.24,2,1.57,1.57,0,0,1-.64.76,3.64,3.64,0,0,1-1.58.23v.63H34v-.63a3.48,3.48,0,0,1-1.57-.25A1.54,1.54,0,0,1,31.81,40.87Z"/><rect class="cls-2" width="60" height="60"/></g></svg>