<svg xmlns="http://www.w3.org/2000/svg" viewBox="0 0 60 60"><defs><style>.cls-1{fill:#1f1f1f;}.cls-2{fill:none;}</style></defs><title>light_bulb</title><g id="light_bulb"><path class="cls-1" d="M30.14,10.53H30A17.14,17.14,0,0,0,13,27.75a17.14,17.14,0,0,0,4.36,11.87,32,32,0,0,1,4.62,6v6.23c0,4.68,3.84,7.13,7.63,7.13,4.34,0,7.38-2.93,7.38-7.12V45.65c.39-.91,2.75-3.68,5.23-6.12A17.44,17.44,0,0,0,47,27.75,17.08,17.08,0,0,0,30.14,10.53Zm2.8,41.32A3.05,3.05,0,0,1,29.57,55c-.37,0-3.62-.09-3.62-3.12v-.32h7Zm0-3.32h-7v-1h7Zm6.37-11.8c-3.44,3.39-5,5.49-5.74,6.8H31V38.14l5.16-6.63a1.5,1.5,0,0,0-2.37-1.84l-4.29,5.51-4.29-5.51a1.5,1.5,0,0,0-2.37,1.84L28,38.14v5.39H25.5l-.16,0a32.94,32.94,0,0,0-5.1-6.65A13.36,13.36,0,0,1,17,27.75,13.14,13.14,0,0,1,30,14.53h.16A13.08,13.08,0,0,1,43,27.75,13.37,13.37,0,0,1,39.31,36.73Z"/><path class="cls-1" d="M30,8a1.5,1.5,0,0,0,1.5-1.5v-4a1.5,1.5,0,0,0-3,0v4A1.5,1.5,0,0,0,30,8Z"/><path class="cls-1" d="M55,26.53H51a1.5,1.5,0,0,0,0,3h4a1.5,1.5,0,0,0,0-3Z"/><path class="cls-1" d="M9,26.53H5a1.5,1.5,0,0,0,0,3H9a1.5,1.5,0,1,0,0-3Z"/><path class="cls-1" d="M15.15,15.12a1.5,1.5,0,0,0,1.06-2.56L13.38,9.73a1.5,1.5,0,1,0-2.12,2.12l2.83,2.83A1.5,1.5,0,0,0,15.15,15.12Z"/><path class="cls-1" d="M46.62,9.73l-2.83,2.83a1.5,1.5,0,1,0,2.12,2.12l2.83-2.83a1.5,1.5,0,0,0-2.12-2.12Z"/><rect class="cls-2" width="60" height="60"/></g></svg>