<svg xmlns="http://www.w3.org/2000/svg" viewBox="0 0 60 60"><defs><style>.cls-1{fill:#1f1f1f;}.cls-2{fill:none;}</style></defs><title>link</title><g id="link"><path class="cls-1" d="M33.2,38.46a10.28,10.28,0,0,1-7.29-3l-.81-.81a2,2,0,0,1,2.83-2.83l.81.81a6.32,6.32,0,0,0,8.93,0L48.71,21.56a6.32,6.32,0,0,0,0-8.93l-1.38-1.37a6.33,6.33,0,0,0-8.93,0L30.56,19.1a2,2,0,1,1-2.83-2.83l7.85-7.85a10.33,10.33,0,0,1,14.58,0L51.54,9.8a10.33,10.33,0,0,1,0,14.59L40.49,35.44A10.28,10.28,0,0,1,33.2,38.46Z"/><path class="cls-1" d="M17.12,54.58a10.28,10.28,0,0,1-7.29-3L8.46,50.19a10.33,10.33,0,0,1,0-14.58L19.51,24.56a10.33,10.33,0,0,1,14.58,0l.81.81a2,2,0,1,1-2.83,2.83l-.81-.81a6.33,6.33,0,0,0-8.93,0L11.28,38.44a6.33,6.33,0,0,0,0,8.93l1.38,1.38a6.32,6.32,0,0,0,8.93,0l7.85-7.85a2,2,0,0,1,2.83,2.83l-7.85,7.85A10.28,10.28,0,0,1,17.12,54.58Z"/><rect class="cls-2" width="60" height="60"/></g></svg>