<svg xmlns="http://www.w3.org/2000/svg" viewBox="0 0 60 60"><defs><style>.cls-1{fill:#1f1f1f;}.cls-2{fill:none;}</style></defs><title>load</title><g id="load"><path class="cls-1" d="M21.1,23.52l-2-3.48-4.47,2.54a17.57,17.57,0,0,1,15.67-9.82,17.18,17.18,0,0,1,17,14.39l3.95-.66a21.16,21.16,0,0,0-21-17.73A21.61,21.61,0,0,0,11.06,20.83L9.47,16.5,5.71,17.88l4.37,11.88Z"/><path class="cls-1" d="M54.29,43.43,49.92,31.56l-11,6.24,2,3.48,4.24-2.4A17.13,17.13,0,0,1,13.71,34l-3.89.92a21.13,21.13,0,0,0,39.07,5.42l1.65,4.48Z"/><rect class="cls-2" width="60" height="60"/></g></svg>