<svg xmlns="http://www.w3.org/2000/svg" viewBox="0 0 60 60"><defs><style>.cls-1{fill:#1f1f1f;}.cls-2{fill:none;}</style></defs><title>lock</title><g id="lock"><path class="cls-1" d="M44.78,24.79H42.5v-8C42.5,10.51,37,5.58,30,5.58S17.5,10.51,17.5,16.81v8H15.22A5.18,5.18,0,0,0,10,30V49.24a5.18,5.18,0,0,0,5.18,5.18H44.78A5.18,5.18,0,0,0,50,49.24V30A5.18,5.18,0,0,0,44.78,24.79Zm-23.28-8c0-4.05,3.73-7.23,8.5-7.23s8.5,3.18,8.5,7.23v8h-17ZM46,49.24a1.19,1.19,0,0,1-1.18,1.18H15.22A1.19,1.19,0,0,1,14,49.24V30a1.19,1.19,0,0,1,1.18-1.18H44.78A1.19,1.19,0,0,1,46,30Z"/><path class="cls-1" d="M30,32.8a4.54,4.54,0,0,0-2,8.63v3.11a2,2,0,0,0,4,0V41.42a4.54,4.54,0,0,0-2-8.62Z"/><rect class="cls-2" width="60" height="60"/></g></svg>