<svg xmlns="http://www.w3.org/2000/svg" viewBox="0 0 60 60"><defs><style>.cls-1{fill:#1f1f1f;}.cls-2{fill:none;}</style></defs><title>mail</title><g id="mail"><path class="cls-1" d="M54.13,18.07A4.53,4.53,0,0,0,53,15l-.06-.09,0,0-.13-.12-.19-.16a4.41,4.41,0,0,0-2.89-1.09H10.35a4.41,4.41,0,0,0-2.9,1.1l-.14.12-.17.16,0,0,0,.06a4.54,4.54,0,0,0-1.21,3.07V41.93a4.53,4.53,0,0,0,2.3,3.94,2,2,0,0,0,.34.19,4.4,4.4,0,0,0,1.84.41h39.3a4.42,4.42,0,0,0,3-1.18l.05,0L52.9,45,53,45l.06-.1a4.53,4.53,0,0,0,1.08-2.92ZM38.19,30.5,50.13,20V40.1ZM9.87,41.17V20L22.36,31.1l-6.57,5.25Zm3.2-23.64H46.9l-17,14.92ZM14.6,42.47l3.7-3,7.1-5.67,3.18,2.82a2,2,0,0,0,2.65,0l3.92-3.44L46.7,42.47H14.6Z"/><rect class="cls-2" width="60" height="60"/></g></svg>