<svg xmlns="http://www.w3.org/2000/svg" viewBox="0 0 60 60"><defs><style>.cls-1{fill:#1f1f1f;}.cls-2{fill:none;}</style></defs><title>map_pin</title><g id="map_pin"><path class="cls-1" d="M30,5.44A19.1,19.1,0,0,0,10.92,24.52a18.8,18.8,0,0,0,1.55,8c3.91,9.62,15.41,21,15.9,21.43a2,2,0,0,0,2.77,0c1.54-1.38,11.16-11.11,15.31-20.26a19,19,0,0,0,2.63-9.24A19.1,19.1,0,0,0,30,5.44ZM42.92,31.88l-.08.16c-3.15,7-10,14.62-13,17.71C26.66,46.46,19,38,16.16,31l0-.1a14.9,14.9,0,0,1-1.2-6.39,15.08,15.08,0,1,1,30.17,0A15.16,15.16,0,0,1,42.92,31.88Z"/><path class="cls-1" d="M30,15.85a8.67,8.67,0,1,0,8.67,8.67A8.68,8.68,0,0,0,30,15.85Zm0,13.33a4.67,4.67,0,1,1,4.67-4.67A4.67,4.67,0,0,1,30,29.19Z"/><rect class="cls-2" width="60" height="60"/></g></svg>