<svg xmlns="http://www.w3.org/2000/svg" viewBox="0 0 60 60"><defs><style>.cls-1{fill:#1f1f1f;}.cls-2{fill:none;}</style></defs><title>menu_cross</title><g id="menu_cross"><rect class="cls-1" x="12" y="15" width="5" height="4"/><rect class="cls-1" x="12" y="23.67" width="5" height="4"/><rect class="cls-1" x="12" y="32.33" width="5" height="4"/><polygon class="cls-1" points="53.91 8.91 51.09 6.09 42.17 15 20 15 20 19 38.17 19 33.51 23.67 20 23.67 20 27.67 29.51 27.67 24.84 32.33 20 32.33 20 36.33 20.84 36.33 16.17 41 12 41 12 45 12.17 45 6.09 51.09 8.91 53.91 20 42.83 20 45 48 45 48 41 21.83 41 26.5 36.33 48 36.33 48 32.33 30.5 32.33 35.16 27.67 48 27.67 48 23.67 39.16 23.67 43.83 19 48 19 48 15 47.83 15 53.91 8.91"/><rect class="cls-2" width="60" height="60"/></g></svg>