<svg xmlns="http://www.w3.org/2000/svg" viewBox="0 0 60 60"><defs><style>.cls-1{fill:#1f1f1f;}.cls-2{fill:none;}</style></defs><title>mobile_tablet</title><g id="mobile_tablet"><path class="cls-1" d="M43.67,5.5H16.33a4.84,4.84,0,0,0-4.83,4.83V49.67a4.84,4.84,0,0,0,4.83,4.83H43.67a4.84,4.84,0,0,0,4.83-4.83V10.33A4.84,4.84,0,0,0,43.67,5.5Zm.83,44.17a.85.85,0,0,1-.83.83H16.33a.85.85,0,0,1-.83-.83V10.33a.85.85,0,0,1,.83-.83H43.67a.85.85,0,0,1,.83.83Z"/><circle class="cls-1" cx="30" cy="45.4" r="1.6"/><rect class="cls-2" width="60" height="60"/></g></svg>