<svg xmlns="http://www.w3.org/2000/svg" viewBox="0 0 60 60"><defs><style>.cls-1{fill:#1f1f1f;}.cls-2{fill:#fff;}.cls-3{fill:none;}</style></defs><title>movie_clip</title><g id="movie_clip"><path class="cls-1" d="M51.5,10v5h-6V10h-31v5h-6V10h-3V50h3V45h6v5h31V45h6v5h3V10Zm-37,32h-6V36h6Zm0-9h-6V27h6Zm0-9h-6V18h6Zm37,18h-6V36h6Zm0-9h-6V27h6Zm0-9h-6V18h6Z"/><path class="cls-2" d="M23.16,31.42V22c0-.78.55-1.1,1.23-.71l5.72,3.28L32.57,26l5.69,3.28a.75.75,0,0,1,0,1.41L32.56,34,30.1,35.39l-5.71,3.28c-.68.39-1.23.07-1.23-.71Z"/><rect class="cls-3" width="60" height="60"/></g></svg>