<?xml version="1.0" encoding="utf-8"?>
<!-- Generator: Adobe Illustrator 22.0.1, SVG Export Plug-In . SVG Version: 6.00 Build 0)  -->
<svg version="1.1" id="Calque_1" xmlns="http://www.w3.org/2000/svg" xmlns:xlink="http://www.w3.org/1999/xlink" x="0px" y="0px"
	 viewBox="0 0 90.7 55.6" style="enable-background:new 0 0 90.7 55.6;" xml:space="preserve">
<style type="text/css">
	.st0{fill:#D4007A;}
</style>
<g transform="translate(0,-952.36218)">
	<path class="st0" d="M45.3,952.8c-24.8,0-45,20.2-45,45c0,1.7,1.3,3,3,3h9c1.7,0,3-1.3,3-3c0-1.7-1.3-3-3-3c0,0-0.1,0-0.1,0H6.6
		c0.7-8.5,4-16.2,9.2-22.3l2.4,2.4c1.1,1.2,3,1.4,4.2,0.3c1.2-1.1,1.4-3,0.3-4.2c-0.1-0.1-0.2-0.2-0.3-0.3l-2.4-2.4
		c6.1-5.3,13.8-8.7,22.3-9.3v5.9c0,1.7,1.3,3,3,3c1.7,0,3-1.3,3-3c0,0,0-0.1,0-0.1v-5.9c8.5,0.6,16.2,4.1,22.3,9.3l-2.4,2.4
		c-1.2,1.1-1.4,3-0.3,4.2c1.1,1.2,3,1.4,4.2,0.3c0.1-0.1,0.2-0.2,0.3-0.3l2.4-2.4c5.2,6.1,8.5,13.8,9.2,22.3h-5.7c-1.7,0-3,1.3-3,3
		s1.3,3,3,3c0,0,0.1,0,0.1,0h9c1.7,0,3-1.3,3-3C90.3,972.9,70.1,952.8,45.3,952.8z M61.5,978.5c-0.4,0-0.9,0.1-1.2,0.3
		c0,0-4.6,2.1-9.6,4.6c-2.5,1.2-5.1,2.6-7.3,3.8c-2.2,1.2-3.9,2.2-5.2,3.5c-3.9,3.9-3.9,10.3,0,14.2c3.9,3.9,10.2,3.9,14.1,0
		c1.3-1.3,2.3-3,3.5-5.2s2.6-4.8,3.8-7.3c2.5-5,4.6-9.6,4.6-9.6c0.7-1.5,0-3.3-1.5-4C62.4,978.6,61.9,978.5,61.5,978.5z M55.2,987.9
		c-0.4,0.9-0.4,0.9-0.9,1.8c-1.2,2.4-2.5,4.9-3.7,7c-1.2,2.1-2.4,3.8-2.5,3.9c-1.6,1.6-4.1,1.6-5.7,0c-1.6-1.6-1.6-4.1,0-5.7
		c0.1-0.1,1.9-1.3,3.9-2.5c2.1-1.2,4.6-2.5,7-3.7C54.3,988.3,54.3,988.3,55.2,987.9z"/>
</g>
</svg>
