<svg xmlns="http://www.w3.org/2000/svg" viewBox="0 0 60 60"><defs><style>.cls-1{fill:#1f1f1f;}.cls-2{fill:none;}</style></defs><title>network</title><g id="network"><path class="cls-1" d="M44.58,19.39a14.65,14.65,0,0,0-29.17,0A13.14,13.14,0,0,0,5.26,31.83c0,7.11,6.19,12.9,13.79,12.9.28,0,.57,0,.85,0l.25,0a2,2,0,0,0-.3-4l-.32,0c-.16,0-.32,0-.48,0-5.4,0-9.79-4-9.79-8.9,0-4.38,3.6-8.17,8.37-8.8l1.77-.23,0-2.08a10.64,10.64,0,0,1,21.29,0l-.06,2.08,1.78.24c4.77.63,8.37,4.42,8.37,8.8,0,4.91-4.39,8.9-9.79,8.9h-.48a2,2,0,0,0-2.08,1.92A2,2,0,0,0,40.3,44.7h.13l.52,0c7.61,0,13.79-5.79,13.79-12.9A13.13,13.13,0,0,0,44.58,19.39Z"/><polygon class="cls-1" points="42.05 32.57 39.42 29.55 32 36.01 32 25.9 28 25.9 28 36 20.57 29.55 17.96 32.58 28 41.3 28 53.9 32 53.9 32 41.32 42.05 32.57"/><rect class="cls-2" width="60" height="60"/></g></svg>