<svg xmlns="http://www.w3.org/2000/svg" viewBox="0 0 60 60"><defs><style>.cls-1{fill:#1f1f1f;}.cls-2{fill:none;}</style></defs><title>paper_clip</title><g id="paper_clip"><path class="cls-1" d="M17.08,55h0A9.53,9.53,0,0,1,10.34,38.7L34.17,14.87a5.69,5.69,0,0,1,4-1.68h0a5.72,5.72,0,0,1,4,9.77L21.08,44a2,2,0,1,1-2.82-2.84L39.44,20.13a1.72,1.72,0,0,0,0-2.43,1.76,1.76,0,0,0-2.44,0L13.17,41.53A5.53,5.53,0,0,0,17.08,51h0A5.5,5.5,0,0,0,21,49.36l24.8-24.8A9.1,9.1,0,0,0,39.35,9h0a9.05,9.05,0,0,0-6.44,2.67L16.7,28.14a2,2,0,0,1-2.85-2.81L30.08,8.87A13,13,0,0,1,39.35,5h0a13.1,13.1,0,0,1,9.26,22.37l-24.8,24.8A9.47,9.47,0,0,1,17.08,55Z"/><rect class="cls-2" width="60" height="60"/></g></svg>