<svg xmlns="http://www.w3.org/2000/svg" viewBox="0 0 60 60"><defs><style>.cls-1{fill:#1f1f1f;}.cls-2{fill:none;}</style></defs><title>picture</title><g id="picture"><path class="cls-1" d="M52.5,10H7.5a2,2,0,0,0-2,2V48a2,2,0,0,0,2,2h45a2,2,0,0,0,2-2V12A2,2,0,0,0,52.5,10Zm-2,36H9.5V14h41Z"/><circle class="cls-1" cx="42.41" cy="22.34" r="4.1"/><path class="cls-1" d="M16.07,40.87l8.39-8.2,3.48,3.4,4.76,4.78a2,2,0,0,0,2.69.13l3.87-3.2L43.2,41A2,2,0,1,0,45.75,38l-5.21-4.31a2,2,0,0,0-2.55,0l-3.74,3.09-3.49-3.51-4.89-4.78a2,2,0,0,0-2.79,0L13.28,38a2,2,0,1,0,2.79,2.86Z"/><rect class="cls-2" width="60" height="60"/></g></svg>