<svg xmlns="http://www.w3.org/2000/svg" viewBox="0 0 60 60"><defs><style>.cls-1{fill:#1f1f1f;}.cls-2{fill:none;}</style></defs><title>puzzle</title><g id="puzzle"><path class="cls-1" d="M46.39,26.27h0l-.59,0V20.81a6.62,6.62,0,0,0-6.62-6.62H33.71q0-.29,0-.59a8.05,8.05,0,0,0-8-8h0a8,8,0,0,0-8,8q0,.29,0,.59H12.18a6.62,6.62,0,0,0-6.62,6.62v8.06a2,2,0,0,0,2.86,1.81,4,4,0,0,1,5.77,3.64,4.05,4.05,0,0,1-4,4A4,4,0,0,1,8.42,38a2,2,0,0,0-2.86,1.81v8.06a6.62,6.62,0,0,0,6.62,6.62h8.06A2,2,0,0,0,22,51.58a4,4,0,0,1-.41-1.73,4.05,4.05,0,0,1,4-4h0a4,4,0,0,1,3.64,5.77,2,2,0,0,0,1.81,2.86h8.06a6.62,6.62,0,0,0,6.62-6.62V42.34l.59,0a8,8,0,0,0,0-16.09Zm0,12.09A4,4,0,0,1,44.66,38a2,2,0,0,0-2.86,1.81v8.06a2.62,2.62,0,0,1-2.62,2.62H33.71q0-.29,0-.59a8.05,8.05,0,0,0-8-8h0a8.06,8.06,0,0,0-8,8q0,.29,0,.59H12.18a2.62,2.62,0,0,1-2.62-2.62V42.34l.59,0a8,8,0,1,0-.59-16.07V20.81a2.62,2.62,0,0,1,2.62-2.62h8.06A2,2,0,0,0,22,15.34a4,4,0,0,1,3.64-5.77h0a4,4,0,0,1,3.64,5.77,2,2,0,0,0,1.81,2.86h8.06a2.62,2.62,0,0,1,2.62,2.62v8.06a2,2,0,0,0,2.86,1.81,4,4,0,0,1,1.73-.41,4,4,0,0,1,0,8.09Z"/><rect class="cls-2" width="60" height="60"/></g></svg>