<svg xmlns="http://www.w3.org/2000/svg" viewBox="0 0 60 60"><defs><style>.cls-1{fill:#1f1f1f;}.cls-2{fill:none;}</style></defs><title>question_bubble</title><g id="question_bubble"><path class="cls-1" d="M29.85,38.55H28.73a1,1,0,0,0-1.06,1.06v1a1,1,0,0,0,1.06,1.06h1.12a1,1,0,0,0,1.06-1.06v-1A1,1,0,0,0,29.85,38.55Z"/><path class="cls-1" d="M29.75,18.64A8.82,8.82,0,0,0,25,20.05c-.58.38-.58.86-.19,1.44l.42.58a1.07,1.07,0,0,0,1.5.29,5.64,5.64,0,0,1,2.78-.8c2.14,0,3.68,1.38,3.68,3.17,0,3.74-5.44,4.58-5.44,9.06v.64a1,1,0,0,0,1.06,1.06h.93c.64,0,.93-.26,1-.8l0-.67c.26-3.71,5.63-4.38,5.63-9.5C36.44,20.95,33.4,18.64,29.75,18.64Z"/><path class="cls-1" d="M30,4.2A25.8,25.8,0,0,0,7.9,43.28l-3.6,9.83a2,2,0,0,0,2.57,2.56l9.82-3.59A25.8,25.8,0,1,0,30,4.2ZM30,51.8a21.69,21.69,0,0,1-12-3.6A2,2,0,0,0,16.24,48l-6.7,2.45L12,43.73a2,2,0,0,0-.21-1.78A21.79,21.79,0,1,1,30,51.8Z"/><rect class="cls-2" width="60" height="60"/></g></svg>