<svg xmlns="http://www.w3.org/2000/svg" viewBox="0 0 60 60"><defs><style>.cls-1{fill:#1f1f1f;}.cls-2{fill:none;}</style></defs><title>rocket</title><g id="rocket"><path class="cls-1" d="M52.77,7.88a2,2,0,0,0-1.21-1.19C47.83,5,32.37,4,21.55,15.18A11.88,11.88,0,0,0,8.47,19.87c-2.95,4.17-3.28,9.73-.78,13a2,2,0,0,0,2.83.33,9,9,0,0,1,2.35-1.41c-.56,3.3-.76,6.63-.77,6.81a2,2,0,0,0,.58,1.53l7.69,7.69a2,2,0,0,0,1.55.58c.17,0,3.24-.23,6.4-.76a11.87,11.87,0,0,1-1.49,2.31,2,2,0,0,0,.33,2.83,8.45,8.45,0,0,0,5.23,1.64,13.19,13.19,0,0,0,7.49-2.49A12.24,12.24,0,0,0,44.77,38.4C55.91,27.58,54.59,11.67,52.77,7.88ZM41.18,36.29a2,2,0,0,0-.57,2.12c2,5.87-1.48,9.08-3,10.19a8.83,8.83,0,0,1-6.16,1.69c1.56-2.69,2-5.29.89-6.55a2,2,0,0,0-2-.64,56.07,56.07,0,0,1-7.73,1.18l-6.39-6.39a52.81,52.81,0,0,1,1.13-7.78,2,2,0,0,0-.64-2c-1-.87-3.55-1.1-6.54.53a8.93,8.93,0,0,1,1.63-6.44c1.3-1.84,4.31-4.67,9.8-2.84a2,2,0,0,0,2.12-.57C33.26,8,46.71,9.41,49.35,10.1,50.17,13,51.87,26.75,41.18,36.29Z"/><path class="cls-1" d="M33.18,15.82a7.53,7.53,0,1,0,10.65,0A7.54,7.54,0,0,0,33.18,15.82Zm8.53,8.53a4.53,4.53,0,1,1,0-6.41A4.5,4.5,0,0,1,41.71,24.35Z"/><path class="cls-1" d="M14.67,44.79a1.5,1.5,0,0,0-2.12,0l-5,5A1.5,1.5,0,1,0,9.69,51.9l5-5A1.5,1.5,0,0,0,14.67,44.79Z"/><path class="cls-1" d="M15.79,48,13.52,50.3a1.5,1.5,0,1,0,2.12,2.12l2.27-2.27A1.5,1.5,0,1,0,15.79,48Z"/><path class="cls-1" d="M9.17,45.94l2.27-2.26a1.5,1.5,0,0,0-2.12-2.12L7,43.82a1.5,1.5,0,0,0,2.12,2.12Z"/><rect class="cls-2" width="60" height="60"/></g></svg>