<svg xmlns="http://www.w3.org/2000/svg" viewBox="0 0 60 60"><defs><style>.cls-1{fill:#1f1f1f;}.cls-2{fill:none;}</style></defs><title>sd_card</title><g id="sd_card"><path class="cls-1" d="M47.91,12.49,43.36,7.42l-.08-.08C42.9,7,40.83,5,38.58,5H15.48c-2.08,0-5,2.36-5,4.69V25a2,2,0,0,0,2,2v4a2,2,0,0,0-2,2V51.53c0,2.4,2.5,3.47,5,3.47h8a2,2,0,0,0,2-2V52h9v1a2,2,0,0,0,2,2h9.73c1.49,0,3.27-.6,3.27-3.47V17.33C49.5,16.58,49.38,14,47.91,12.49ZM34.5,9v3h-2V9Zm-6,0v3h-2V9Zm-6,0v3h-2V9Zm23,42h-7V50a2,2,0,0,0-2-2h-13a2,2,0,0,0-2,2v1h-6a4.07,4.07,0,0,1-1-.12V35a2,2,0,0,0,2-2V25a2,2,0,0,0-2-2V9.87A2.72,2.72,0,0,1,15.56,9h.94v5a2,2,0,0,0,2,2h18a2,2,0,0,0,2-2V9h.08a4.29,4.29,0,0,1,1.85,1.14L45,15.19l.07.08a3.92,3.92,0,0,1,.47,2.06Z"/><rect class="cls-2" width="60" height="60"/></g></svg>