<svg xmlns="http://www.w3.org/2000/svg" viewBox="0 0 60 60"><defs><style>.cls-1{fill:#1f1f1f;}.cls-2{fill:none;}</style></defs><title>SIM_card</title><g id="SIM_card"><path class="cls-1" d="M47.38,11.9,42.56,7.08a7.49,7.49,0,0,0-4.83-2H14.63a4,4,0,0,0-4,4V50.92a4,4,0,0,0,4,4H45.38a4,4,0,0,0,4-4V16.73A7.49,7.49,0,0,0,47.38,11.9Zm-2,39H14.63V9.08h23.1a3.66,3.66,0,0,1,2,.83l4.82,4.82a3.67,3.67,0,0,1,.83,2Z"/><path class="cls-1" d="M38.94,19.88H21.07a3.5,3.5,0,0,0-3.5,3.5V45a3.5,3.5,0,0,0,3.5,3.5H38.94a3.5,3.5,0,0,0,3.5-3.5V23.38A3.5,3.5,0,0,0,38.94,19.88Zm.5,3.5v5H35.36V22.88h3.58A.51.51,0,0,1,39.44,23.38Zm-12.08,5V22.88h5v5.51Zm-6.29-5.51h3.29v5.51H20.57v-5A.51.51,0,0,1,21.07,22.88ZM20.57,45V39.39h3.79v6.14H21.07A.51.51,0,0,1,20.57,45Zm11.81.5h-5V39.39h5v6S32.37,45.49,32.37,45.53Zm6.56,0H35.34s0-.09,0-.14v-7.5a1.5,1.5,0,0,0-1.5-1.5H20.57v-5H39.44V45A.51.51,0,0,1,38.94,45.53Z"/><rect class="cls-2" width="60" height="60"/></g></svg>