<svg xmlns="http://www.w3.org/2000/svg" viewBox="0 0 60 60"><defs><style>.cls-1{fill:#1f1f1f;}.cls-2{fill:none;}</style></defs><title>star</title><g id="star"><path class="cls-1" d="M43.67,53a2,2,0,0,1-.93-.23L30,46.11l-12.74,6.7a2,2,0,0,1-2.9-2.11l2.43-14.19-10.31-10a2,2,0,0,1,1.11-3.41L21.84,21,28.21,8.07a2,2,0,0,1,3.59,0L38.16,21l14.25,2.07a2,2,0,0,1,1.11,3.41l-10.31,10L45.65,50.7a2,2,0,0,1-2,2.34ZM12.17,26.43l8.16,8a2,2,0,0,1,.58,1.77L19,47.39l10.09-5.3a2,2,0,0,1,1.86,0L41,47.39,39.09,36.15a2,2,0,0,1,.58-1.77l8.16-8L36.55,24.79A2,2,0,0,1,35,23.7L30,13.48,25,23.7a2,2,0,0,1-1.51,1.09Z"/><rect class="cls-2" width="60" height="60"/></g></svg>