<svg xmlns="http://www.w3.org/2000/svg" viewBox="0 0 60 60"><defs><style>.cls-1{fill:#1f1f1f;}.cls-2{fill:none;}</style></defs><title>two_years_warranty</title><g id="two_years_warranty"><path class="cls-1" d="M35.64,36.07h-8.5c.17-3.89,9.4-5,9.4-11.63,0-3.89-3.1-6.09-6.7-6.09a7.54,7.54,0,0,0-6.18,3.1A1.06,1.06,0,0,0,24,23.07l.78.61c.58.49,1.16.29,1.71-.26a4,4,0,0,1,3-1.54,2.88,2.88,0,0,1,3.13,2.87C32.66,28.85,23,30,23,37.46v.61a1.17,1.17,0,0,0,1.31,1.22H35.64a1.08,1.08,0,0,0,1.22-1.22v-.81A1.07,1.07,0,0,0,35.64,36.07Z"/><path class="cls-1" d="M54.91,27.74a.84.84,0,0,0-.13-1.23L51,23.68a1.4,1.4,0,0,1-.46-1.41l1.36-4.48a.84.84,0,0,0-.62-1.07l-4.56-1.07a1.4,1.4,0,0,1-1-1.1l-.58-4.65a.84.84,0,0,0-1-.73L39.58,10a1.4,1.4,0,0,1-1.36-.6l-2.42-4a.84.84,0,0,0-1.21-.26L30.74,7.85a1.4,1.4,0,0,1-1.49,0L25.41,5.17a.84.84,0,0,0-1.21.26l-2.42,4a1.4,1.4,0,0,1-1.36.6l-4.6-.88a.84.84,0,0,0-1,.73l-.58,4.65a1.4,1.4,0,0,1-1,1.1L8.67,16.71a.84.84,0,0,0-.62,1.07l1.36,4.48A1.4,1.4,0,0,1,9,23.67L5.22,26.51a.84.84,0,0,0-.13,1.23l3.07,3.54a1.4,1.4,0,0,1,.16,1.48L6,36.86A.84.84,0,0,0,6.43,38l4.25,2a1.4,1.4,0,0,1,.74,1.29L11,46a.84.84,0,0,0,.83.92l4.69.09a1.4,1.4,0,0,1,1.2.87l1.54,4.43a.84.84,0,0,0,1.13.5L24.72,51a1.4,1.4,0,0,1,1.45.31l3.21,3.42a.84.84,0,0,0,1.24,0l3.21-3.42A1.4,1.4,0,0,1,35.28,51l4.32,1.82a.84.84,0,0,0,1.13-.5l1.54-4.43a1.4,1.4,0,0,1,1.2-.87l4.69-.09A.84.84,0,0,0,49,46l-.4-4.67A1.4,1.4,0,0,1,49.33,40l4.24-2A.84.84,0,0,0,54,36.86l-2.26-4.11a1.4,1.4,0,0,1,.16-1.48ZM30,49.79A19.77,19.77,0,1,1,49.77,30,19.77,19.77,0,0,1,30,49.79Z"/><rect class="cls-2" width="60" height="60"/></g></svg>