<svg xmlns="http://www.w3.org/2000/svg" viewBox="0 0 120 146"><defs><style>.cls-1{fill:#1b1b1b;}</style></defs><title>câble usb</title><g id="câble_usb"><rect class="cls-1" x="23.12" y="17.44" width="5" height="12.97"/><rect class="cls-1" x="36.25" y="17.44" width="5" height="12.97"/><path class="cls-1" d="M92.42,27.46c-12.45,0-22.58,9.17-22.58,20.43,0,9.86,0,27.82,0,39.91l-.06,28.71c0,10.75-7.93,19.49-17.62,19.49s-17.57-7.17-17.57-16V98.29h11.1A2.5,2.5,0,0,0,48,96.75L59.19,69.6a2.49,2.49,0,0,0,.19-1V42.09a2.5,2.5,0,0,0-2.5-2.5H53.6V9.5A4.51,4.51,0,0,0,49.09,5H15.29a4.51,4.51,0,0,0-4.5,4.5V39.59H7.5A2.5,2.5,0,0,0,5,42.09V68.65a2.49,2.49,0,0,0,.19,1L16.42,96.75a2.5,2.5,0,0,0,2.31,1.54H29.53V120c0,11.57,10.13,21,22.58,21s22.6-11,22.63-24.47l.06-28.71c0-12.09,0-30.05,0-39.92,0-8.51,7.88-15.44,17.58-15.44S110,41.2,110,51.94v70.35h5V51.94C115,38.44,104.87,27.46,92.42,27.46ZM15.79,10h32.8V39.59H15.79ZM10,68.15V44.59H54.37V68.15L44,93.3H20.41Z"/></g></svg>