<svg xmlns="http://www.w3.org/2000/svg" viewBox="0 0 60 60"><defs><style>.cls-1{fill:#d4007a;}.cls-2{fill:none;}</style></defs><title>world_round</title><g id="world_round"><path class="cls-1" d="M30,4.32A25.68,25.68,0,1,0,55.68,30,25.71,25.71,0,0,0,30,4.32ZM47.27,43.08A25.68,25.68,0,0,0,44,40.86,28.69,28.69,0,0,0,46.14,32h5.44A21.55,21.55,0,0,1,47.27,43.08ZM8.42,32h5.44a28.68,28.68,0,0,0,2.22,9,25.63,25.63,0,0,0-3.21,2.23A21.56,21.56,0,0,1,8.42,32Zm4.45-15.25a25.6,25.6,0,0,0,3,2.1,28.79,28.79,0,0,0-2,9.16H8.42A21.56,21.56,0,0,1,12.87,16.75ZM28,18.62A24,24,0,0,1,21.21,17,22.42,22.42,0,0,1,28,9.88Zm0,4V28H17.82a24.79,24.79,0,0,1,1.63-7.36A28,28,0,0,0,28,22.63ZM28,32v5.37a28.08,28.08,0,0,0-8.32,1.9A24.69,24.69,0,0,1,17.88,32Zm0,9.38V49.5a22.4,22.4,0,0,1-6.47-6.67A24.12,24.12,0,0,1,28,41.38Zm4,8.13V41.36a24.28,24.28,0,0,1,6.55,1.36A22.42,22.42,0,0,1,32,49.5Zm0-12.15V32H42.12a24.7,24.7,0,0,1-1.75,7.15A28.22,28.22,0,0,0,32,37.36ZM32,28V22.64a28.18,28.18,0,0,0,8.59-1.89A24.8,24.8,0,0,1,42.18,28Zm0-9.36V9.88a22.43,22.43,0,0,1,6.86,7.26A24.2,24.2,0,0,1,32,18.64ZM38.39,10A21.73,21.73,0,0,1,44.57,14a21.65,21.65,0,0,1-2.09,1.44A26.83,26.83,0,0,0,38.39,10ZM17.62,15.23a21.55,21.55,0,0,1-2-1.43,21.72,21.72,0,0,1,6-3.79A26.82,26.82,0,0,0,17.62,15.23Zm.29,29.36a26.82,26.82,0,0,0,4.79,5.82,21.69,21.69,0,0,1-7.08-4.21A21.61,21.61,0,0,1,17.91,44.59Zm24.28-.17A21.7,21.7,0,0,1,44.57,46a21.71,21.71,0,0,1-7.26,4.37A26.83,26.83,0,0,0,42.19,44.42Zm4-16.42a28.8,28.8,0,0,0-2-9,25.67,25.67,0,0,0,3.05-2.11A21.56,21.56,0,0,1,51.58,28Z"/><rect class="cls-2" width="60" height="60"/></g></svg>