<?xml version="1.0" encoding="utf-8"?>
<!-- Generator: Adobe Illustrator 21.1.0, SVG Export Plug-In . SVG Version: 6.00 Build 0)  -->
<svg version="1.1" id="Mode_Isolation" xmlns="http://www.w3.org/2000/svg" xmlns:xlink="http://www.w3.org/1999/xlink" x="0px"
	 y="0px" viewBox="0 0 320 320" style="enable-background:new 0 0 320 320;" xml:space="preserve">
<style type="text/css">
	.st0{fill:#E4E6EE;}
	.st1{fill:#B8CEE4;}
	.st2{fill:#7F9AB9;}
	.st3{fill:#FFFFFF;}
	.st4{fill:#E6EEF4;}
	.st5{fill:none;stroke:#E6EEF4;stroke-width:7.1773;stroke-linecap:round;stroke-linejoin:round;stroke-miterlimit:10;}
</style>
<g>
	<path class="st0" d="M264.5,239.8l-215.1,1.4c-10,0.1-18.1-7.9-18.1-17.9L30.5,103C30.4,93,38.4,85,48.4,84.9l215.1-1.4
		c10-0.1,18.1,7.9,18.1,17.9l0.7,120.3C282.4,231.7,274.4,239.7,264.5,239.8z"/>
	<path class="st1" d="M259.8,221.7l-216,1.3c-10,0.1-18.1-7.9-18.1-17.9L24.9,84.2c-0.1-10,7.9-18.1,17.9-18.1l216-1.3
		c10-0.1,18.1,7.9,18.1,17.9l0.8,120.9C277.8,213.5,269.8,221.6,259.8,221.7z"/>
	
		<rect x="25.1" y="87.8" transform="matrix(1 -6.387133e-03 6.387133e-03 1 -0.6581 0.9671)" class="st2" width="252" height="31.4"/>
	
		<rect x="56.1" y="135.8" transform="matrix(1 -6.387133e-03 6.387133e-03 1 -0.9219 0.7202)" class="st3" width="112.4" height="17.8"/>
	<ellipse transform="matrix(0.444 -0.896 0.896 0.444 -131.3709 158.0534)" class="st4" cx="61.7" cy="184.9" rx="12.7" ry="12.7"/>
	<line class="st5" x1="131.6" y1="176.4" x2="255.6" y2="175.7"/>
	<line class="st5" x1="184" y1="189.7" x2="255.7" y2="189.3"/>
</g>
</svg>
